<svg width="47" height="43" viewBox="0 0 47 43" fill="none" xmlns="http://www.w3.org/2000/svg">
<g filter="url(#filter0_bi_38_1286)">
<path d="M14.3409 0.5C12.6948 0.5 11.18 1.39885 10.3912 2.84371L1.60753 18.933C0.873844 20.2769 0.873844 21.9017 1.60753 23.2456L10.3912 39.3349C11.18 40.7797 12.6948 41.6786 14.3409 41.6786H33.0366C34.7091 41.6786 36.2436 40.751 37.021 39.2701L45.4668 23.1808C46.1542 21.8712 46.1542 20.3074 45.4668 18.9977L37.021 2.90845C36.2436 1.42758 34.7091 0.5 33.0366 0.5H14.3409Z" stroke="#6C6A6A"/>
</g>
<path d="M28.25 23.2499V18.7499C28.25 18.551 28.329 18.3602 28.4697 18.2196C28.6103 18.0789 28.8011 17.9999 29 17.9999C29.1989 17.9999 29.3897 18.0789 29.5303 18.2196C29.671 18.3602 29.75 18.551 29.75 18.7499V23.2499C29.75 23.4488 29.671 23.6396 29.5303 23.7803C29.3897 23.9209 29.1989 23.9999 29 23.9999C28.8011 23.9999 28.6103 23.9209 28.4697 23.7803C28.329 23.6396 28.25 23.4488 28.25 23.2499ZM32 16.4999C31.8011 16.4999 31.6103 16.5789 31.4697 16.7196C31.329 16.8602 31.25 17.051 31.25 17.2499V24.7499C31.25 24.9488 31.329 25.1396 31.4697 25.2803C31.6103 25.4209 31.8011 25.4999 32 25.4999C32.1989 25.4999 32.3897 25.4209 32.5303 25.2803C32.671 25.1396 32.75 24.9488 32.75 24.7499V17.2499C32.75 17.051 32.671 16.8602 32.5303 16.7196C32.3897 16.5789 32.1989 16.4999 32 16.4999ZM31.055 28.7456C31.1226 28.8182 31.1752 28.9035 31.2096 28.9966C31.244 29.0897 31.2595 29.1887 31.2554 29.2879C31.2513 29.387 31.2275 29.4844 31.1854 29.5743C31.1434 29.6642 31.0839 29.7449 31.0105 29.8116C30.937 29.8784 30.851 29.9299 30.7575 29.9632C30.664 29.9964 30.5649 30.0108 30.4658 30.0055C30.3667 30.0002 30.2696 29.9752 30.1802 29.9321C30.0908 29.889 30.0109 29.8285 29.945 29.7543L26 25.4146V29.9999C25.9999 30.1403 25.9604 30.2778 25.8861 30.3968C25.8117 30.5158 25.7054 30.6116 25.5793 30.6732C25.4533 30.7348 25.3124 30.7598 25.1728 30.7454C25.0332 30.7309 24.9005 30.6776 24.7897 30.5915L18.2422 25.4999H14C13.6022 25.4999 13.2206 25.3419 12.9393 25.0606C12.658 24.7793 12.5 24.3977 12.5 23.9999V17.9999C12.5 17.6021 12.658 17.2206 12.9393 16.9393C13.2206 16.658 13.6022 16.4999 14 16.4999H17.8953L14.945 13.2543C14.8774 13.1817 14.8248 13.0963 14.7904 13.0032C14.756 12.9101 14.7405 12.8111 14.7446 12.712C14.7487 12.6128 14.7725 12.5154 14.8146 12.4255C14.8566 12.3356 14.9161 12.255 14.9895 12.1882C15.063 12.1215 15.149 12.07 15.2425 12.0367C15.336 12.0034 15.4351 11.989 15.5342 11.9944C15.6333 11.9997 15.7304 12.0246 15.8198 12.0678C15.9092 12.1109 15.9891 12.1713 16.055 12.2456L31.055 28.7456ZM24.5 23.7646L19.2594 17.9999H14V23.9999H18.5C18.6669 23.9997 18.829 24.0555 18.9603 24.1584L24.5 28.4662V23.7646ZM21.9744 15.4977L24.5 13.529V19.0106C24.5 19.2095 24.579 19.4002 24.7197 19.5409C24.8603 19.6815 25.0511 19.7606 25.25 19.7606C25.4489 19.7606 25.6397 19.6815 25.7803 19.5409C25.921 19.4002 26 19.2095 26 19.0106V11.9999C25.9999 11.8596 25.9604 11.7221 25.8861 11.6031C25.8117 11.4841 25.7054 11.3883 25.5793 11.3267C25.4533 11.265 25.3124 11.24 25.1728 11.2545C25.0332 11.2689 24.9005 11.3222 24.7897 11.4084L21.0538 14.3146C20.8999 14.4378 20.8007 14.6165 20.7776 14.8123C20.7545 15.008 20.8093 15.2049 20.9303 15.3605C21.0513 15.5161 21.2286 15.6178 21.424 15.6437C21.6194 15.6695 21.8171 15.6174 21.9744 15.4987V15.4977Z" fill="white"/>
<defs>
<filter id="filter0_bi_38_1286" x="-41.4427" y="-42" width="129.925" height="126.179" filterUnits="userSpaceOnUse" color-interpolation-filters="sRGB">
<feFlood flood-opacity="0" result="BackgroundImageFix"/>
<feGaussianBlur in="BackgroundImageFix" stdDeviation="21"/>
<feComposite in2="SourceAlpha" operator="in" result="effect1_backgroundBlur_38_1286"/>
<feBlend mode="normal" in="SourceGraphic" in2="effect1_backgroundBlur_38_1286" result="shape"/>
<feColorMatrix in="SourceAlpha" type="matrix" values="0 0 0 0 0 0 0 0 0 0 0 0 0 0 0 0 0 0 127 0" result="hardAlpha"/>
<feOffset dx="-5" dy="-5"/>
<feGaussianBlur stdDeviation="125"/>
<feComposite in2="hardAlpha" operator="arithmetic" k2="-1" k3="1"/>
<feColorMatrix type="matrix" values="0 0 0 0 1 0 0 0 0 1 0 0 0 0 1 0 0 0 0.02 0"/>
<feBlend mode="normal" in2="shape" result="effect2_innerShadow_38_1286"/>
</filter>
</defs>
</svg>
