<svg width="47" height="43" viewBox="0 0 47 43" fill="none" xmlns="http://www.w3.org/2000/svg">
<g filter="url(#filter0_bi_284_28)">
<path d="M14.3409 0.5C12.6948 0.5 11.18 1.39885 10.3912 2.84371L1.60753 18.933C0.873844 20.2769 0.873844 21.9017 1.60753 23.2456L10.3912 39.3349C11.18 40.7797 12.6948 41.6786 14.3409 41.6786H33.0366C34.7091 41.6786 36.2436 40.751 37.021 39.2701L45.4668 23.1808C46.1542 21.8712 46.1542 20.3074 45.4668 18.9977L37.021 2.90845C36.2436 1.42758 34.7091 0.5 33.0366 0.5H14.3409Z" stroke="#6C6A6A"/>
</g>
<path d="M25.5791 11.3258C25.4529 11.2643 25.3121 11.2395 25.1726 11.2541C25.033 11.2686 24.9004 11.3221 24.7897 11.4083L18.2422 16.4998H14C13.6022 16.4998 13.2206 16.6579 12.9393 16.9392C12.658 17.2205 12.5 17.602 12.5 17.9998V23.9998C12.5 24.3977 12.658 24.7792 12.9393 25.0605C13.2206 25.3418 13.6022 25.4998 14 25.4998H18.2422L24.7897 30.5914C24.9005 30.6775 25.0332 30.7309 25.1728 30.7453C25.3124 30.7597 25.4533 30.7347 25.5793 30.6731C25.7054 30.6115 25.8117 30.5157 25.8861 30.3967C25.9604 30.2777 25.9999 30.1402 26 29.9998V11.9998C26 11.8593 25.9606 11.7217 25.8861 11.6025C25.8117 11.4833 25.7053 11.3874 25.5791 11.3258ZM24.5 28.4661L18.9603 24.1583C18.829 24.0554 18.6669 23.9996 18.5 23.9998H14V17.9998H18.5C18.6669 18.0001 18.829 17.9443 18.9603 17.8414L24.5 13.5336V28.4661ZM29.75 18.7498V23.2498C29.75 23.4488 29.671 23.6395 29.5303 23.7802C29.3897 23.9208 29.1989 23.9998 29 23.9998C28.8011 23.9998 28.6103 23.9208 28.4697 23.7802C28.329 23.6395 28.25 23.4488 28.25 23.2498V18.7498C28.25 18.5509 28.329 18.3602 28.4697 18.2195C28.6103 18.0789 28.8011 17.9998 29 17.9998C29.1989 17.9998 29.3897 18.0789 29.5303 18.2195C29.671 18.3602 29.75 18.5509 29.75 18.7498ZM32.75 17.2498V24.7498C32.75 24.9488 32.671 25.1395 32.5303 25.2802C32.3897 25.4208 32.1989 25.4998 32 25.4998C31.8011 25.4998 31.6103 25.4208 31.4697 25.2802C31.329 25.1395 31.25 24.9488 31.25 24.7498V17.2498C31.25 17.0509 31.329 16.8602 31.4697 16.7195C31.6103 16.5789 31.8011 16.4998 32 16.4998C32.1989 16.4998 32.3897 16.5789 32.5303 16.7195C32.671 16.8602 32.75 17.0509 32.75 17.2498Z" fill="white"/>
<defs>
<filter id="filter0_bi_284_28" x="-41.4427" y="-42" width="129.925" height="126.179" filterUnits="userSpaceOnUse" color-interpolation-filters="sRGB">
<feFlood flood-opacity="0" result="BackgroundImageFix"/>
<feGaussianBlur in="BackgroundImageFix" stdDeviation="21"/>
<feComposite in2="SourceAlpha" operator="in" result="effect1_backgroundBlur_284_28"/>
<feBlend mode="normal" in="SourceGraphic" in2="effect1_backgroundBlur_284_28" result="shape"/>
<feColorMatrix in="SourceAlpha" type="matrix" values="0 0 0 0 0 0 0 0 0 0 0 0 0 0 0 0 0 0 127 0" result="hardAlpha"/>
<feOffset dx="-5" dy="-5"/>
<feGaussianBlur stdDeviation="125"/>
<feComposite in2="hardAlpha" operator="arithmetic" k2="-1" k3="1"/>
<feColorMatrix type="matrix" values="0 0 0 0 1 0 0 0 0 1 0 0 0 0 1 0 0 0 0.02 0"/>
<feBlend mode="normal" in2="shape" result="effect2_innerShadow_284_28"/>
</filter>
</defs>
</svg>
