<svg width="66" height="16" viewBox="0 0 66 16" fill="none" xmlns="http://www.w3.org/2000/svg">
<path d="M61.0554 14.7575C60.9488 14.757 60.8454 14.7211 60.7614 14.6555C60.2703 14.2891 59.7749 13.9272 59.2822 13.5642C58.5158 12.9986 57.7495 12.4342 56.9859 11.8665C56.3707 11.4091 55.7567 10.9523 55.1354 10.5021C55.0372 10.4315 54.965 10.4662 54.8861 10.5181C54.6312 10.6836 54.3774 10.8491 54.123 11.0163C53.2127 11.6155 52.3023 12.2157 51.392 12.8144C50.5578 13.3628 49.7225 13.9095 48.8872 14.4569C48.6422 14.6168 48.3889 14.7636 48.155 14.9391C48.1329 14.9556 48.1109 14.9683 48.0844 14.9589C48.0507 14.9451 48.0695 14.9159 48.0695 14.8927C48.0695 14.8751 48.0772 14.8563 48.0734 14.8392C48.0254 14.6351 48.133 14.5115 48.2803 14.3818C49.2142 13.5609 50.1452 12.7367 51.0731 11.909C52.0072 11.0775 52.9396 10.2433 53.8731 9.41133C53.9145 9.37382 53.9305 9.35285 53.8869 9.29933C53.5774 8.91588 53.2734 8.52857 52.9672 8.14237L52.1302 7.08526L50.9109 5.54044C50.5672 5.10623 50.2212 4.67202 49.8753 4.23726C49.5421 3.81795 49.2088 3.39644 48.875 2.97768C48.4778 2.47837 48.0783 1.98016 47.6805 1.48195C47.6656 1.4632 47.6298 1.45216 47.643 1.42292C47.6574 1.39037 47.6943 1.40251 47.7219 1.40306L50.5225 1.41023C50.6296 1.40953 50.7338 1.44512 50.8182 1.5112C51.5592 2.06182 52.299 2.61464 53.0488 3.15533C53.7302 3.64582 54.4027 4.14789 55.0803 4.64278C55.4637 4.92306 55.8483 5.20002 56.2328 5.47864L56.2941 5.52444C56.4805 5.6723 56.4899 5.67561 56.6952 5.53933C57.5448 4.97437 58.3928 4.4083 59.243 3.84223C60.0038 3.33575 60.7658 2.83092 61.5266 2.32444C62.1964 1.87864 62.8651 1.43175 63.5338 0.984851C63.5636 0.964989 63.5934 0.931334 63.6309 0.948989C63.6695 0.967747 63.6358 1.00747 63.6425 1.03726C63.6965 1.2872 63.5536 1.43671 63.376 1.59009C62.8855 2.01492 62.4099 2.4563 61.9244 2.88775C61.3854 3.36775 60.8414 3.84223 60.3023 4.32223C59.5785 4.9672 58.8568 5.61492 58.1335 6.26154C57.9785 6.39947 57.8251 6.53961 57.6667 6.67423C57.6121 6.72113 57.6132 6.75257 57.6568 6.80664C58.0789 7.33299 58.4976 7.86044 58.9175 8.38789C59.4163 9.01409 59.9139 9.64195 60.4143 10.2676C60.8474 10.8077 61.2844 11.3451 61.7175 11.8858C62.096 12.3586 62.4695 12.8348 62.8474 13.3076C63.221 13.7744 63.5983 14.2389 63.9729 14.7057C63.9945 14.7322 64.0447 14.7531 64.0243 14.7912C64.0066 14.8243 63.9575 14.8122 63.9211 14.8105C63.4345 14.7978 61.5238 14.7697 61.0549 14.7597L61.0554 14.7575Z" fill="#21ADE4"/>
<path d="M37.3462 1.07588C37.4764 1.0825 37.6055 1.09022 37.7352 1.09519C38.1959 1.11174 38.6566 1.1167 39.1167 1.14595C39.5724 1.17408 40.0259 1.22319 40.4789 1.27008C40.7691 1.29988 41.0582 1.33629 41.3473 1.38043C41.6066 1.4207 41.7302 1.60222 41.6728 1.84995C41.525 2.48167 41.3738 3.11229 41.2248 3.74346C41.152 4.05243 41.0786 4.36029 41.0086 4.67036C40.9617 4.87726 40.8364 5.06208 40.5148 5.05657C39.9046 5.04572 39.2943 5.04572 38.6841 5.05657C38.3217 5.06429 38.0899 4.92139 38.1821 4.48388C38.2417 4.20029 38.0927 4.00608 37.7578 3.99063C37.2381 3.96581 36.7172 3.94098 36.1975 3.95036C35.7876 3.95753 35.3754 3.99891 34.9892 4.15615C34.3465 4.41712 34.2604 5.04167 34.6295 5.52994C34.7647 5.70926 34.9368 5.84719 35.1371 5.94374C35.6353 6.1876 36.1302 6.44029 36.6417 6.65546C37.3881 6.96994 38.1092 7.32691 38.805 7.73408C39.4295 8.09822 39.936 8.57546 40.2692 9.2127C40.4728 9.60222 40.5903 10.0155 40.6306 10.4513C40.6825 11.0014 40.6141 11.5382 40.4006 12.0442C40.2748 12.3443 40.0905 12.6268 39.9023 12.8966C39.2331 13.8588 38.2841 14.4359 37.1492 14.7476C36.6455 14.8861 36.1313 14.976 35.6116 15.0262C34.8679 15.1025 34.1199 15.1279 33.3727 15.1024C33.1332 15.0924 32.8916 15.109 32.6521 15.0941C32.2117 15.0666 31.7717 15.0317 31.3324 14.9893C30.9531 14.9534 30.5747 14.9085 30.1975 14.8546C29.6899 14.7807 29.1846 14.6946 28.6786 14.608C28.4386 14.5666 28.2019 14.5159 27.9636 14.4657C27.712 14.4127 27.5906 14.2384 27.6513 13.9973C27.8599 13.1735 28.0745 12.3504 28.2869 11.5272C28.3128 11.4262 28.3388 11.3247 28.368 11.2243C28.4287 11.0168 28.5534 10.9253 28.7735 10.9253H30.7834C31.0703 10.9253 31.2519 11.1184 31.1939 11.3898C31.1222 11.7324 31.2756 11.8797 31.6221 11.9222C32.3382 12.0105 33.0566 12.0579 33.7782 12.0293C34.256 12.0105 34.7332 11.9702 35.1983 11.856C35.5156 11.7782 35.7843 11.6204 35.9321 11.3225C36.1137 10.9584 35.9928 10.5219 35.6121 10.251C35.4052 10.1037 35.1702 9.99008 34.9374 9.88139C33.9327 9.41243 32.9385 8.92857 32.0033 8.33381C31.6142 8.09125 31.2452 7.81782 30.8999 7.51615C30.405 7.08514 30.0678 6.50161 29.9415 5.85767C29.7716 5.01739 29.8588 4.2025 30.2681 3.43781C30.5484 2.91532 30.9837 2.52746 31.4852 2.20857C32.043 1.85215 32.6621 1.63477 33.3021 1.47146C33.8792 1.32269 34.4687 1.22649 35.0632 1.18401C35.6039 1.14539 36.1457 1.12112 36.6869 1.09022C36.7349 1.08691 36.7823 1.07919 36.8303 1.07367H37.3434L37.3468 1.07532L37.3462 1.07588ZM0 4.72829C0.0524138 4.54512 0.109241 4.36415 0.155586 4.17988C0.366345 3.36332 0.572138 2.54677 0.782345 1.73022C0.840828 1.50622 0.988138 1.4025 1.22759 1.4025C3.97462 1.4025 6.7211 1.40581 9.46814 1.4025C10.96 1.40139 12.4508 1.38926 13.9426 1.38263C14.0044 1.38263 14.0684 1.38815 14.1297 1.40195C14.3537 1.4505 14.4728 1.63036 14.4215 1.84774C14.2284 2.65767 14.032 3.4665 13.8367 4.27532C13.7826 4.49601 13.7319 4.71726 13.6712 4.93574C13.6204 5.12057 13.525 5.20001 13.333 5.20829C13.0726 5.21932 12.8121 5.21932 12.5517 5.22098C12.1131 5.22319 11.6739 5.22374 11.2348 5.22319C11.1647 5.22319 11.0935 5.21657 11.0251 5.20388C10.8872 5.1785 10.7796 5.04277 10.768 4.88664C10.7641 4.83643 10.7663 4.78457 10.768 4.73436C10.7763 4.50264 10.6152 4.33932 10.3735 4.33822C10.1087 4.33657 9.84497 4.33822 9.58014 4.33822C9.3429 4.33822 9.22262 4.42319 9.16634 4.64995C9.00414 5.30043 8.84634 5.95201 8.688 6.60305C8.54455 7.19119 8.40331 7.77932 8.25986 8.36691C7.99779 9.43395 7.73462 10.501 7.4731 11.568C7.41241 11.8141 7.56469 12.0039 7.82897 12.0138C8.07779 12.0237 8.26483 12.1495 8.29572 12.3504C8.30897 12.4386 8.28469 12.5363 8.26152 12.6251C8.09384 13.2705 7.92391 13.9153 7.75172 14.5595C7.68607 14.8033 7.57959 14.8822 7.32414 14.8822H1.71862C1.38207 14.8822 1.21766 14.6864 1.29931 14.3691C1.47421 13.6916 1.65241 13.0168 1.83228 12.341C1.8891 12.128 2.01821 12.0342 2.24221 12.0326C2.37297 12.032 2.50262 12.0364 2.63338 12.0342C2.86897 12.0304 3.00634 11.9239 3.06097 11.6999C3.36662 10.4475 3.67448 9.19505 3.97572 7.94098C4.22455 6.9065 4.464 5.87036 4.70952 4.83477C4.78676 4.51257 4.61186 4.33657 4.32993 4.35091C4.24055 4.35532 4.15172 4.34374 4.06179 4.34319C3.86097 4.34043 3.66069 4.33767 3.45931 4.33767C3.25186 4.33767 3.12 4.43477 3.05876 4.63008C3.02786 4.72995 3.00028 4.83091 2.97048 4.93132C2.91972 5.10126 2.80828 5.20222 2.62841 5.20719C2.27917 5.21822 1.92938 5.21822 1.58014 5.22043C1.21545 5.22153 0.850759 5.21546 0.486069 5.22263C0.260965 5.22484 0.0882759 5.15863 0 4.94457V4.72829ZM26.4 1.4025H29.1807C29.4372 1.4025 29.5978 1.57629 29.5724 1.82181C29.5665 1.86057 29.552 1.89752 29.5299 1.92995C28.8684 3.00526 28.2036 4.07891 27.5437 5.15532C26.6764 6.56774 25.813 7.98291 24.9473 9.39643C24.6406 9.89629 24.3327 10.395 24.0243 10.8922C23.2629 12.1192 22.496 13.344 21.7412 14.5755C21.6066 14.7939 21.4439 14.8861 21.1823 14.8844C19.7263 14.8762 18.272 14.8811 16.816 14.88C16.4916 14.88 16.3426 14.7266 16.3277 14.4088C16.3095 14.005 16.2737 13.6006 16.2472 13.1967C16.229 12.9153 16.2141 12.6334 16.197 12.352C16.1694 11.9261 16.1396 11.5002 16.1131 11.0748C16.0954 10.8039 16.0806 10.533 16.0634 10.2621C16.0359 9.82512 16.0061 9.3887 15.9785 8.95284C15.9603 8.66043 15.9465 8.36801 15.9283 8.0756C15.9018 7.66346 15.8731 7.25298 15.8455 6.84139L15.7953 6.07284C15.7666 5.62595 15.7368 5.17795 15.7092 4.7305C15.6839 4.31505 15.6629 3.90015 15.6364 3.4847C15.611 3.08084 15.5774 2.67643 15.5548 2.27257C15.5437 2.06843 15.531 1.86098 15.5531 1.6585C15.5708 1.49629 15.7192 1.40195 15.8913 1.40195C17.5702 1.40084 19.2486 1.40029 20.9274 1.40195C21.1989 1.40195 21.3534 1.63146 21.2789 1.92719C21.1123 2.59477 20.9412 3.26126 20.7691 3.92719C20.7172 4.12801 20.5804 4.22401 20.363 4.22622C20.1103 4.22843 19.9487 4.3945 19.9592 4.64222C20.0104 5.84977 20.066 7.05713 20.1258 8.26429C20.1368 8.47395 20.1495 8.6836 20.1672 8.89326C20.1837 9.09132 20.2963 9.2287 20.4646 9.26788C20.619 9.30374 20.7884 9.22594 20.8938 9.05822C21.1884 8.58594 21.4803 8.11257 21.7716 7.63919C22.336 6.72443 22.8993 5.81022 23.4637 4.89712C23.5537 4.75146 23.6309 4.60857 23.5481 4.43146C23.4764 4.27698 23.3423 4.23891 23.1884 4.22567C23.0861 4.21895 22.9844 4.20419 22.8844 4.18153C22.8083 4.16108 22.743 4.11217 22.7019 4.04492C22.6608 3.97766 22.6472 3.8972 22.6637 3.82015C22.7851 3.34181 22.9131 2.86457 23.0389 2.38732C23.0963 2.17105 23.1548 1.95532 23.2099 1.73905C23.2734 1.49629 23.3953 1.40084 23.6535 1.40084H26.4V1.4025Z" fill="#0A0506"/>
</svg>
