<svg width="96" height="24" viewBox="0 0 96 24" fill="none" xmlns="http://www.w3.org/2000/svg">
<path d="M90.0309 21.9648C89.8737 21.9639 89.7212 21.911 89.5973 21.8143C88.8732 21.2741 88.1426 20.7404 87.4161 20.205C86.2861 19.3711 85.1561 18.5389 84.0301 17.7017C83.123 17.0273 82.2175 16.3537 81.3014 15.6898C81.1566 15.5857 81.05 15.6369 80.9337 15.7134C80.5578 15.9575 80.1836 16.2015 79.8085 16.448C78.4662 17.3316 77.1238 18.2167 75.7814 19.0994C74.5513 19.9081 73.3196 20.7143 72.0879 21.5214C71.7266 21.7573 71.3532 21.9737 71.0083 22.2324C70.9757 22.2568 70.9432 22.2756 70.9041 22.2617C70.8545 22.2414 70.8822 22.1983 70.8822 22.1641C70.8822 22.1381 70.8935 22.1104 70.8879 22.0852C70.8171 21.7842 70.9757 21.6019 71.1929 21.4107C72.5701 20.2003 73.9429 18.9848 75.3112 17.7644C76.6885 16.5383 78.0634 15.3082 79.44 14.0814C79.501 14.0261 79.5246 13.9951 79.4603 13.9162C79.0039 13.3508 78.5556 12.7797 78.1041 12.2102L76.87 10.6514L75.072 8.37345C74.5651 7.73318 74.055 7.09291 73.5449 6.45183C73.0535 5.83352 72.5622 5.21196 72.07 4.59447C71.4842 3.8582 70.8952 3.12356 70.3086 2.38891C70.2866 2.36125 70.2337 2.34498 70.2533 2.30186C70.2744 2.25386 70.3289 2.27176 70.3696 2.27257L74.4992 2.28315C74.6572 2.28212 74.8109 2.33459 74.9353 2.43203C76.0279 3.24396 77.1189 4.05915 78.2245 4.85644C79.2293 5.57969 80.221 6.32003 81.2201 7.04979C81.7855 7.46308 82.3525 7.87149 82.9196 8.28234L83.0099 8.34986C83.2849 8.56789 83.2987 8.57278 83.6013 8.37183C84.8542 7.53874 86.1047 6.70403 87.3584 5.86932C88.4803 5.12247 89.6038 4.37806 90.7257 3.63122C91.7133 2.97386 92.6994 2.31488 93.6854 1.6559C93.7293 1.62661 93.7733 1.57698 93.8286 1.60301C93.8855 1.63068 93.8359 1.68925 93.8457 1.73318C93.9254 2.10173 93.7147 2.3222 93.4527 2.54837C92.7295 3.17481 92.0282 3.82566 91.3123 4.46186C90.5174 5.16966 89.7152 5.86932 88.9204 6.57712C87.853 7.52817 86.7889 8.48328 85.7223 9.43678C85.4937 9.64017 85.2675 9.84681 85.034 10.0453C84.9535 10.1145 84.9551 10.1608 85.0194 10.2406C85.6417 11.0167 86.2592 11.7945 86.8784 12.5722C87.6138 13.4956 88.3476 14.4215 89.0855 15.344C89.7242 16.1405 90.3685 16.9329 91.0072 17.7302C91.5653 18.4274 92.1161 19.1295 92.6733 19.8267C93.2241 20.515 93.7806 21.2 94.333 21.8883C94.3647 21.9274 94.4388 21.9583 94.4087 22.0144C94.3826 22.0632 94.3102 22.0453 94.2565 22.0429C93.539 22.0242 90.7216 21.9827 90.0301 21.968L90.0309 21.9648Z" fill="#21ADE4"/>
<path d="M55.0698 1.78988C55.2618 1.79964 55.4522 1.81103 55.6434 1.81835C56.3227 1.84276 57.002 1.85008 57.6805 1.8932C58.3525 1.93469 59.0213 2.0071 59.6892 2.07625C60.1172 2.12018 60.5435 2.17388 60.9698 2.23896C61.3521 2.29835 61.5344 2.56601 61.4498 2.9313C61.2317 3.86282 61.0088 4.79272 60.7892 5.72344C60.6818 6.17903 60.5736 6.633 60.4702 7.09022C60.4011 7.3953 60.2164 7.66784 59.7421 7.65971C58.8424 7.64371 57.9424 7.64371 57.0427 7.65971C56.5082 7.6711 56.1665 7.46038 56.3024 6.81523C56.3902 6.39706 56.1706 6.11069 55.6767 6.08791C54.9104 6.0513 54.1424 6.01469 53.376 6.02852C52.7715 6.0391 52.1638 6.10011 51.5943 6.33198C50.6465 6.71679 50.5196 7.63774 51.0639 8.35774C51.2632 8.62215 51.517 8.82554 51.8123 8.96791C52.547 9.3275 53.2767 9.70011 54.0309 10.0174C55.1317 10.4811 56.195 11.0075 57.2209 11.6079C58.1418 12.1449 58.8887 12.8486 59.3801 13.7882C59.6803 14.3626 59.8536 14.972 59.9129 15.6147C59.9894 16.4258 59.8885 17.2174 59.5737 17.9634C59.3882 18.406 59.1165 18.8226 58.8391 19.2204C57.8522 20.6392 56.4529 21.4902 54.7794 21.9499C54.0366 22.1541 53.2784 22.2867 52.512 22.3607C51.4154 22.4732 50.3123 22.5107 49.2106 22.473C48.8575 22.4584 48.5012 22.4828 48.1481 22.4608C47.4986 22.4203 46.8498 22.3688 46.202 22.3062C45.6427 22.2533 45.0847 22.1871 44.5285 22.1077C43.7801 21.9987 43.0348 21.8718 42.2888 21.744C41.9349 21.683 41.5859 21.6082 41.2344 21.5342C40.8635 21.456 40.6845 21.199 40.774 20.8434C41.0815 19.6288 41.398 18.415 41.7112 17.2011C41.7494 17.0523 41.7877 16.9026 41.8308 16.7545C41.9203 16.4486 42.1041 16.3135 42.4287 16.3135H45.3925C45.8156 16.3135 46.0833 16.5983 45.9978 16.9986C45.8921 17.5038 46.1182 17.721 46.6292 17.7836C47.6852 17.9138 48.7444 17.9838 49.8085 17.9415C50.5131 17.9138 51.2168 17.8544 51.9026 17.686C52.3704 17.5713 52.7666 17.3386 52.9847 16.8993C53.2523 16.3624 53.0742 15.7188 52.5128 15.3194C52.2077 15.1021 51.8612 14.9346 51.5178 14.7743C50.0363 14.0828 48.5703 13.3693 47.1913 12.4922C46.6175 12.1346 46.0734 11.7314 45.5642 11.2866C44.8345 10.651 44.3373 9.79054 44.1511 8.84099C43.9005 7.60194 44.029 6.40032 44.6327 5.27272C45.046 4.50228 45.6879 3.93035 46.4274 3.46011C47.2499 2.93455 48.1627 2.61401 49.1064 2.3732C49.9575 2.15383 50.8267 2.01196 51.7033 1.94933C52.5006 1.89238 53.2995 1.85659 54.0976 1.81103C54.1684 1.80615 54.2384 1.79476 54.3092 1.78662H55.0658L55.0706 1.78906L55.0698 1.78988ZM0 7.17564C0.0772881 6.90554 0.161085 6.63869 0.229424 6.36696C0.540203 5.16289 0.843661 3.95882 1.15363 2.75476C1.23986 2.42445 1.45708 2.2715 1.81017 2.2715C5.86088 2.2715 9.91078 2.27638 13.9615 2.2715C16.1614 2.26988 18.3596 2.25198 20.5595 2.24221C20.6506 2.24221 20.745 2.25035 20.8353 2.27069C21.1656 2.34228 21.3413 2.6075 21.2656 2.92805C20.9809 4.12235 20.6913 5.31503 20.4033 6.50771C20.3235 6.83313 20.2487 7.15937 20.1592 7.48154C20.0843 7.75408 19.9436 7.87123 19.6605 7.88344C19.2765 7.89971 18.8925 7.89971 18.5085 7.90215C17.8617 7.9054 17.2141 7.90622 16.5665 7.9054C16.4632 7.9054 16.3582 7.89564 16.2574 7.87693C16.054 7.8395 15.8953 7.63937 15.8782 7.40913C15.8725 7.3351 15.8758 7.25862 15.8782 7.18459C15.8904 6.84289 15.6529 6.60208 15.2965 6.60045C14.906 6.59801 14.5172 6.60045 14.1266 6.60045C13.7768 6.60045 13.5995 6.72574 13.5165 7.06011C13.2773 8.0193 13.0446 8.98011 12.8111 9.94011C12.5996 10.8074 12.3913 11.6746 12.1798 12.5411C11.7934 14.1145 11.4053 15.6879 11.0197 17.2613C10.9302 17.6242 11.1547 17.904 11.5444 17.9187C11.9113 17.9333 12.1871 18.1188 12.2327 18.415C12.2522 18.5451 12.2164 18.6891 12.1822 18.8201C11.935 19.7718 11.6844 20.7226 11.4305 21.6725C11.3337 22.032 11.1767 22.1484 10.8 22.1484H2.53424C2.03797 22.1484 1.79553 21.8596 1.91593 21.3918C2.17383 20.3927 2.43661 19.3977 2.70183 18.4011C2.78563 18.0871 2.976 17.9488 3.30631 17.9464C3.49912 17.9455 3.6903 17.952 3.88312 17.9488C4.23051 17.9431 4.43308 17.7861 4.51363 17.4558C4.96434 15.609 5.41831 13.7622 5.86251 11.913C6.22942 10.3876 6.58251 8.85971 6.94454 7.33266C7.05844 6.85754 6.80054 6.59801 6.38481 6.61916C6.25302 6.62567 6.12203 6.60859 5.98942 6.60777C5.69329 6.60371 5.39797 6.59964 5.10102 6.59964C4.79512 6.59964 4.60068 6.74283 4.51037 7.03083C4.46481 7.17808 4.42414 7.32696 4.3802 7.47503C4.30536 7.72561 4.14102 7.87449 3.8758 7.88181C3.36081 7.89808 2.84502 7.89808 2.33003 7.90133C1.79227 7.90296 1.25451 7.89401 0.716746 7.90459C0.384814 7.90784 0.130169 7.81022 0 7.49455V7.17564ZM38.9288 2.2715H43.0292C43.4075 2.2715 43.6442 2.52777 43.6068 2.88981C43.5981 2.94697 43.5767 3.00146 43.5441 3.04927C42.5687 4.63489 41.5883 6.21808 40.6153 7.80533C39.3364 9.88805 38.0632 11.9748 36.7867 14.0592C36.3344 14.7963 35.8804 15.5317 35.4256 16.2647C34.3029 18.0741 33.1721 19.8802 32.0591 21.696C31.8606 22.0182 31.6206 22.1541 31.235 22.1516C29.088 22.1394 26.9435 22.1468 24.7965 22.1451C24.3181 22.1451 24.0984 21.919 24.0765 21.4504C24.0496 20.8548 23.9967 20.2585 23.9577 19.663C23.9308 19.248 23.9089 18.8323 23.8837 18.4174C23.843 17.7893 23.7991 17.1613 23.76 16.534C23.734 16.1346 23.712 15.7351 23.6868 15.3356C23.6461 14.6913 23.6022 14.0478 23.5615 13.4051C23.5346 12.9739 23.5143 12.5427 23.4875 12.1115C23.4484 11.5038 23.4061 10.8985 23.3654 10.2916L23.2914 9.15828C23.2491 8.4993 23.2052 7.83869 23.1645 7.17889C23.1271 6.56628 23.0961 5.95449 23.0571 5.34188C23.0197 4.74635 22.97 4.15001 22.9367 3.55449C22.9204 3.25347 22.9017 2.94757 22.9342 2.64899C22.9603 2.40981 23.1791 2.27069 23.4329 2.27069C25.9086 2.26906 28.3835 2.26825 30.8591 2.27069C31.2594 2.27069 31.4872 2.60913 31.3774 3.0452C31.1317 4.0296 30.8795 5.01238 30.6256 5.99435C30.5492 6.29049 30.3474 6.43205 30.0268 6.4353C29.6542 6.43855 29.4159 6.68343 29.4313 7.04872C29.5069 8.82935 29.5888 10.6097 29.677 12.3897C29.6933 12.6989 29.712 13.008 29.738 13.3172C29.7624 13.6093 29.9284 13.8118 30.1765 13.8696C30.4043 13.9225 30.6541 13.8078 30.8095 13.5605C31.2439 12.864 31.6743 12.166 32.1039 11.468C32.9361 10.1191 33.7668 8.77103 34.5991 7.42459C34.7317 7.20981 34.8456 6.9991 34.7235 6.73794C34.6178 6.51015 34.4201 6.45401 34.1931 6.43449C34.0422 6.42458 33.8923 6.40282 33.7448 6.3694C33.6326 6.33924 33.5362 6.26713 33.4757 6.16795C33.4151 6.06878 33.395 5.95013 33.4194 5.83652C33.5984 5.13116 33.7871 4.42744 33.9726 3.72371C34.0572 3.40479 34.1435 3.08669 34.2248 2.76777C34.3184 2.40981 34.4982 2.26906 34.8789 2.26906H38.9288V2.2715Z" fill="white"/>
</svg>
