<svg width="97" height="18" viewBox="0 0 97 18" fill="none" xmlns="http://www.w3.org/2000/svg">
<path d="M68.2693 0.798765C77.4572 0.798765 86.6452 0.798765 95.8328 0.798765C96.0334 0.798765 96.234 0.795405 96.4347 0.797645C96.587 0.799886 96.587 0.811088 96.5529 0.948872C96.4721 1.27261 96.4005 1.59746 96.3256 1.92232C96.2757 2.143 96.2224 2.36368 96.1757 2.58548C96.1116 2.89353 96.0584 3.20271 95.9884 3.50964C95.8902 3.94652 95.7761 4.38116 95.6779 4.81803C95.5872 5.2269 95.4781 5.63017 95.4048 6.04353C95.3715 6.23732 95.3199 6.42776 95.2691 6.61819C95.2467 6.70333 95.2383 6.78846 95.2225 6.87359C95.1551 7.23205 95.0668 7.58828 94.9711 7.93778C94.902 8.18982 94.8637 8.44971 94.8038 8.70175C94.7172 9.06022 94.6423 9.42426 94.5515 9.78166C94.4799 10.0617 94.3451 10.3339 94.1694 10.5725C93.9946 10.8111 93.8281 11.0564 93.6141 11.2648C93.3535 11.5179 93.048 11.7005 92.7358 11.8742C92.2513 12.143 91.7118 12.2247 91.1765 12.32C91.0125 12.3491 90.8535 12.3345 90.6937 12.3345C84.9926 12.3368 79.292 12.3267 73.5914 12.3379C64.6511 12.3547 55.7108 12.3413 46.7705 12.3458C43.3214 12.348 39.8723 12.3435 36.4222 12.3491C35.8397 12.3491 35.2572 12.376 34.6746 12.3704C34.6556 12.3704 34.6377 12.3704 34.6186 12.3727C34.3789 12.4017 34.352 12.3861 34.4316 12.1654C34.5638 11.7991 34.6085 11.4137 34.7139 11.0441C34.8203 10.6677 34.8763 10.2778 34.9961 9.9082C35.1507 9.43209 35.2426 8.9426 35.3747 8.46203C35.5147 7.95458 35.6178 7.43817 35.7422 6.92736C35.852 6.47593 35.9718 6.02672 36.0849 5.57641C36.2171 5.0488 36.3795 4.52566 36.4692 3.99021C36.5543 3.4794 36.7885 3.04364 37.0584 2.62805C37.3934 2.11052 37.81 1.66468 38.3455 1.32414C38.7644 1.05753 39.2114 0.921987 39.6931 0.846934C40.0773 0.787564 40.4616 0.797645 40.8458 0.797645C49.9866 0.797645 59.1274 0.797645 68.2693 0.797645V0.798765Z" fill="#E7282C"/>
<path d="M88.4766 5.32316C88.5832 5.30411 88.6498 5.30076 88.7106 5.27947C89.479 5.01062 90.2441 4.7373 91.0141 4.47069C91.83 4.18728 92.6484 3.90499 93.4692 3.63502C93.7631 3.53868 94.0678 3.47035 94.3708 3.40875C94.4957 3.3841 94.6322 3.39866 94.7588 3.42218C94.837 3.43674 94.9494 3.48604 94.9702 3.54541C94.9952 3.61486 94.9644 3.74928 94.9094 3.79297C94.7246 3.93636 94.5323 4.08871 94.3159 4.16711C93.987 4.28698 93.6324 4.34187 93.2936 4.43709C92.7108 4.59951 92.128 4.76194 91.5528 4.9423C90.3972 5.30524 89.2784 5.76228 88.1778 6.26188C87.6724 6.49152 87.3186 6.85111 87.0705 7.34848C86.4844 8.52692 85.7011 9.55529 84.6205 10.3338C83.9561 10.8121 83.2262 11.1527 82.4016 11.2546C82.0802 11.2949 81.753 11.2905 81.4495 11.1739C80.8984 10.9611 80.7247 10.5029 80.9813 9.96971C81.1863 9.54296 81.5189 9.2192 81.8763 8.92011C82.7098 8.22335 83.6506 7.69686 84.6121 7.20397C85.3023 6.84999 85.9941 6.49937 86.6818 6.13979C86.8033 6.07593 86.9074 5.97847 87.0156 5.89222C87.0414 5.87205 87.0539 5.83621 87.073 5.80821C87.0639 5.79589 87.0547 5.78468 87.0472 5.77236C86.9815 5.80597 86.9107 5.83173 86.8499 5.87318C86.218 6.29885 85.5487 6.65283 84.8211 6.88248C84.5863 6.95641 84.3299 6.97321 84.081 6.98441C83.9603 6.99001 83.8312 6.92728 83.7122 6.88023C83.6264 6.84663 83.6006 6.68644 83.6364 6.55425C83.6539 6.48817 83.6531 6.4176 83.6606 6.34814C83.589 6.34814 83.5116 6.33469 83.445 6.35374C82.6268 6.58899 81.8023 6.80518 80.9958 7.07291C80.0963 7.372 79.2125 7.71814 78.323 8.04636C78.0049 8.16398 77.6912 8.29504 77.3731 8.41154C77.1737 8.48435 76.9709 8.4978 76.785 8.36785C76.552 8.20543 76.4949 7.96682 76.5912 7.66437C76.7021 7.31823 76.9306 7.05163 77.1547 6.7783C77.307 6.59234 77.4526 6.39855 77.6005 6.20924C77.6151 6.19131 77.6353 6.17227 77.6386 6.15098C77.6509 6.06473 77.6588 5.97623 77.6678 5.88886C77.5848 5.88886 77.4851 5.85749 77.4224 5.89222C77.1021 6.06921 76.7783 6.24732 76.4781 6.45568C75.9023 6.85335 75.3097 7.22078 74.669 7.50082C74.4505 7.59604 74.2119 7.67893 73.9778 7.69798C73.5398 7.7327 73.3662 7.62181 73.3202 7.17821C73.253 7.19053 73.1858 7.19613 73.122 7.21629C72.2012 7.51315 71.2815 7.81223 70.3606 8.11021C69.5911 8.36002 68.826 8.62214 68.0508 8.8529C67.6442 8.97389 67.2197 9.02765 66.8041 8.8529C66.4612 8.7084 66.3951 8.54708 66.552 8.20767C66.5924 8.12141 66.6417 8.03963 66.7055 7.92089C66.5979 7.93546 66.5263 7.9377 66.4579 7.95563C65.5763 8.18862 64.697 8.42723 63.8143 8.65799C63.1355 8.8361 62.4555 9.01309 61.7721 9.17549C60.6911 9.43207 59.609 9.69415 58.5045 9.83418C58.1315 9.88121 57.7584 9.8465 57.3966 9.74685C57.232 9.70197 57.1222 9.58218 57.074 9.41076C56.981 9.08254 56.9026 9.01645 56.5621 9.09263C56.0916 9.19905 55.6256 9.33126 55.1641 9.47012C54.0551 9.80279 52.9494 10.1467 51.8416 10.4861C51.575 10.568 51.3095 10.6553 51.0384 10.7236C50.9051 10.7573 50.7617 10.774 50.6251 10.7651C50.354 10.7472 50.214 10.5265 50.3495 10.298C50.4929 10.0571 50.6855 9.8465 50.8569 9.62247C50.9107 9.55079 50.9622 9.47795 51.0228 9.39395C50.8793 9.33459 50.792 9.40402 50.7001 9.44881C50.3091 9.64262 49.9272 9.86107 49.525 10.0269C49.0422 10.2251 48.5415 10.3752 48.0049 10.3237C47.6722 10.2912 47.531 10.0694 47.6487 9.75917C47.763 9.4578 47.9903 9.24501 48.2133 9.02653C48.6255 8.62326 49.1206 8.33089 49.6068 8.03292C50.1972 7.67221 50.7931 7.31599 51.408 6.99897C52.0925 6.64611 52.8262 6.41535 53.5992 6.33918C53.8904 6.31005 54.1839 6.31789 54.4696 6.41199C54.7518 6.50608 54.8594 6.73349 54.6813 6.96985C54.4898 7.22413 54.2635 7.4549 54.0338 7.67669C53.523 8.1707 52.9999 8.65239 52.4812 9.13853C52.4778 9.14194 52.4734 9.14419 52.4712 9.1486C52.4386 9.22037 52.4061 9.29205 52.3726 9.36372C52.4454 9.36031 52.5238 9.37155 52.591 9.35024C53.1533 9.16883 53.7157 8.98732 54.2724 8.79353C55.4228 8.39362 56.5767 8.00155 57.7181 7.57588C58.7947 7.17485 59.8566 6.73685 60.9231 6.31005C61.4327 6.10618 61.9323 5.87878 62.4442 5.68274C62.8889 5.51247 63.3482 5.38925 63.8333 5.4419C63.9285 5.45198 64.026 5.47887 64.1133 5.51695C64.3385 5.61329 64.3878 5.85862 64.194 6.00424C64.0226 6.13306 63.8244 6.24396 63.6205 6.30669C62.5842 6.62595 61.5391 6.91608 60.55 7.3664C60.1355 7.55571 59.7211 7.74726 59.3166 7.95674C59.1419 8.04748 58.9873 8.18079 58.835 8.30848C58.7622 8.36897 58.7072 8.45636 58.6614 8.54149C58.5661 8.71736 58.621 8.82714 58.8115 8.88987C59.0109 8.95484 59.2002 8.88987 59.3861 8.8417C60.2072 8.63446 61.025 8.41826 61.845 8.20767C62.6604 7.99931 63.477 7.79543 64.2926 7.5882C65.1529 7.36976 66.0132 7.14796 66.8735 6.9284C66.9138 6.91832 66.9542 6.90376 66.9956 6.90039C67.307 6.87575 67.5232 6.70324 67.7192 6.47472C68.0116 6.13306 68.3107 5.79589 68.6255 5.4755C68.9436 5.15177 69.3301 4.92773 69.7826 4.84148C70.0033 4.80003 70.2184 4.82691 70.41 4.96134C70.5679 5.07224 70.5926 5.1865 70.4615 5.331C70.0604 5.77572 69.6538 6.21595 69.2494 6.65732C69.105 6.81526 68.9615 6.97209 68.8193 7.13228C68.7857 7.17037 68.7566 7.21405 68.7375 7.25998C68.6781 7.39665 68.7163 7.45601 68.8641 7.44817C68.9705 7.44257 69.0781 7.43025 69.1822 7.4056C69.6796 7.28911 70.1792 7.1782 70.6732 7.04379C71.2468 6.88696 71.818 6.71892 72.3849 6.53633C72.9338 6.35935 73.4715 6.14986 74.0204 5.97288C74.3037 5.88102 74.4897 5.71411 74.6466 5.46207C75.0353 4.83812 75.5864 4.40124 76.3089 4.20969C76.4613 4.16936 76.6315 4.17384 76.7906 4.19064C77.0426 4.21752 77.1647 4.42588 77.0639 4.65552C77.0035 4.79331 76.9004 4.91205 76.8242 5.04423C76.7929 5.10024 76.7828 5.16746 76.7626 5.23019C76.8388 5.23019 76.9261 5.25371 76.9878 5.22458C77.1345 5.15513 77.2678 5.05991 77.4068 4.9759C77.8167 4.72833 78.2177 4.46621 78.6378 4.23881C79.0556 4.01365 79.5161 3.94308 79.991 3.99685C80.0761 4.00693 80.1646 4.03941 80.2385 4.0831C80.4391 4.20185 80.4682 4.4214 80.3069 4.63536C79.9406 5.12153 79.5709 5.60321 79.1991 6.08489C79.0265 6.30893 78.8417 6.52401 78.6737 6.75141C78.639 6.79846 78.649 6.87911 78.639 6.94297C78.6905 6.94072 78.7454 6.94745 78.7946 6.93513C79.3122 6.80182 79.8274 6.66067 80.3473 6.53185C81.2008 6.32126 82.0556 6.1185 82.9102 5.9135C83.385 5.79924 83.8587 5.68386 84.3349 5.5752C84.6937 5.49343 85.0151 5.35117 85.3164 5.13161C86.1589 4.51774 87.0347 3.95204 87.9813 3.50844C88.4184 3.30344 88.8629 3.10741 89.3483 3.03572C89.434 3.02339 89.5264 3.01779 89.6114 3.03236C89.9186 3.08388 90.0551 3.34377 89.8969 3.61262C89.797 3.78177 89.6538 3.92628 89.5231 4.07638C89.2026 4.44381 88.8787 4.80899 88.5574 5.17642C88.5316 5.20554 88.5166 5.24362 88.4733 5.3198L88.4766 5.32316ZM82.3983 10.4099C82.4812 10.3965 82.5686 10.3988 82.6447 10.3686C82.8901 10.2688 83.1377 10.1713 83.3709 10.0481C84.0194 9.70422 84.5772 9.24384 85.0534 8.69047C85.2548 8.45636 85.4263 8.19535 85.5978 7.9377C85.6311 7.88729 85.6286 7.76519 85.5912 7.72823C85.5495 7.6879 85.4421 7.68566 85.3747 7.70582C85.2515 7.74279 85.1308 7.79767 85.0192 7.86489C84.5414 8.15166 84.0618 8.43618 83.5948 8.73976C83.2373 8.97164 82.8856 9.21695 82.5529 9.48469C82.3871 9.61797 82.2538 9.80171 82.1351 9.98095C81.9883 10.2039 82.078 10.4346 82.3983 10.4111V10.4099ZM85.3522 5.92582C85.786 5.88774 88.157 4.41804 88.2885 4.11335C88.0238 4.03718 85.5654 5.54832 85.3522 5.92582ZM52.4162 7.52547C52.3423 7.54451 52.2863 7.55123 52.237 7.57251C51.2916 7.97579 50.4167 8.50228 49.5765 9.08702C49.5127 9.13187 49.4623 9.19564 49.3884 9.2674C49.7882 9.28863 52.255 7.86825 52.4174 7.52547H52.4162Z" fill="white"/>
<path d="M12.4431 3.14096C12.4924 2.955 12.5383 2.78698 12.5809 2.61783C12.6952 2.16414 12.8117 1.71159 12.9181 1.25679C12.9506 1.12013 13.01 1.07532 13.1545 1.07532C14.9961 1.08092 16.8377 1.07868 18.6793 1.07868C18.7297 1.07868 18.7801 1.07868 18.8507 1.07868C18.7857 1.34865 18.7275 1.59845 18.6658 1.84826C18.5717 2.23472 18.4698 2.62007 18.3869 3.0099C18.3622 3.12864 18.3096 3.14544 18.2088 3.1432C17.9522 3.13872 17.6957 3.14208 17.4392 3.14208C17.3933 3.14208 17.3485 3.14208 17.297 3.14208V8.41261C17.3104 8.41821 17.3239 8.42381 17.3373 8.42941C18.3902 6.67518 19.4443 4.91984 20.5108 3.1432H19.4836C19.5328 2.94941 19.5765 2.77466 19.6203 2.60103C19.7356 2.14287 19.8554 1.68583 19.963 1.22654C19.9899 1.11452 20.0347 1.07868 20.1501 1.07868C21.7442 1.08204 23.3393 1.0798 24.9333 1.07868C25.1036 1.07868 25.2738 1.07868 25.4699 1.07868C25.4442 1.13917 25.4341 1.17838 25.4139 1.21086C25.0218 1.81352 24.6253 2.41283 24.2344 3.01662C23.2676 4.5076 22.302 5.9997 21.3364 7.49069C20.588 8.64785 19.841 9.8061 19.0926 10.9622C18.8753 11.2971 18.6569 11.631 18.4317 11.9603C18.4004 12.0062 18.322 12.0443 18.2648 12.0443C16.9878 12.0488 15.7096 12.0466 14.4326 12.0466C14.3116 12.0466 14.1906 12.0466 14.0697 12.0521C13.9879 12.0555 13.9543 12.0252 13.9487 11.9401C13.8949 11.0709 13.8389 10.2005 13.7806 9.33116C13.7134 8.32747 13.6417 7.32489 13.5734 6.3212C13.5196 5.5393 13.4681 4.75853 13.4155 3.97663C13.3987 3.7313 13.3785 3.4871 13.3662 3.24178C13.3617 3.14992 13.3169 3.13872 13.2407 3.13984C12.9808 3.1432 12.7209 3.14096 12.442 3.14096H12.4431Z" fill="white"/>
<path d="M34.3643 1.3354C34.3542 1.35892 34.3486 1.38693 34.3318 1.40597C33.9499 1.84509 33.7729 2.37494 33.6765 2.9328C33.6025 3.35624 33.5555 3.78527 33.5096 4.21319C33.4973 4.32969 33.4704 4.37001 33.346 4.36777C32.7445 4.35993 32.143 4.36329 31.5414 4.36217C31.3644 4.36217 31.3599 4.35433 31.3644 4.18294C31.3689 4.00259 31.3756 3.82112 31.3712 3.64076C31.37 3.5982 31.3285 3.5265 31.2972 3.52091C30.923 3.45369 30.5478 3.36184 30.1703 3.34727C29.8074 3.33271 29.4746 3.46713 29.2562 3.79199C29.0042 4.16726 29.0411 4.50443 29.4007 4.78C29.6281 4.95364 29.8756 5.11046 30.1355 5.2292C30.6833 5.47901 31.2131 5.75682 31.6971 6.11528C32.2673 6.5376 32.6986 7.05064 32.8251 7.77429C32.9271 8.35567 32.7557 8.88665 32.5272 9.40193C32.2034 10.1323 31.6702 10.6823 30.9891 11.099C30.3383 11.4967 29.6583 11.8384 28.9022 11.9694C28.3488 12.0658 27.7843 12.1128 27.223 12.142C25.9606 12.208 24.7116 12.0759 23.476 11.8149C23.3662 11.7913 23.2587 11.7622 23.1478 11.7476C23.0133 11.7308 22.9909 11.6659 23.0257 11.546C23.1287 11.1853 23.2295 10.8246 23.3214 10.4606C23.4681 9.88137 23.6048 9.30112 23.7515 8.72198C23.7605 8.68837 23.8165 8.64244 23.8523 8.64244C24.5704 8.63348 25.2873 8.63012 26.0054 8.62564C26.0838 8.62564 26.1253 8.65252 26.1185 8.74214C26.1051 8.91689 26.1017 9.09276 26.095 9.26865C26.0928 9.31901 26.0972 9.37055 26.0928 9.42208C26.0726 9.6327 26.0715 9.6372 26.2922 9.65959C26.7985 9.71113 27.3048 9.75816 27.8055 9.62038C28.0564 9.55203 28.2794 9.4389 28.4664 9.25075C28.7869 8.92922 28.7555 8.61332 28.4922 8.27054C28.2245 7.92215 27.8336 7.75076 27.4504 7.56818C26.7402 7.22988 26.067 6.83781 25.5539 6.22506C24.9927 5.55406 24.8684 4.80353 25.1596 3.98579C25.6693 2.55642 26.6741 1.66138 28.1416 1.27603C29.2517 0.984778 30.3842 0.899642 31.5235 0.991498C32.395 1.06095 33.262 1.18753 34.1313 1.28835C34.2008 1.29619 34.269 1.30515 34.3386 1.31412C34.3464 1.31412 34.352 1.32532 34.3654 1.33652L34.3643 1.3354Z" fill="white"/>
<path d="M8.89545 3.46156C8.55271 3.46156 8.23233 3.45932 7.91195 3.46605C7.87947 3.46605 7.83017 3.52093 7.82009 3.5579C7.36418 5.42863 6.91162 7.30048 6.45794 9.17124C6.40193 9.40084 6.34479 9.62937 6.28319 9.85789C6.25406 9.96653 6.28654 9.99342 6.39633 9.99234C6.82984 9.9856 7.26336 9.98893 7.69687 9.98893C7.73272 9.98893 7.76857 9.99342 7.82122 9.99792C7.76968 10.2107 7.71928 10.4102 7.67335 10.6106C7.57477 11.0397 7.47395 11.4676 7.38546 11.8978C7.36194 12.0109 7.32385 12.049 7.20622 12.049C5.12266 12.0445 3.03909 12.0456 0.95553 12.0456C0.862555 12.0456 0.768455 12.0467 0.676599 12.0557C0.5657 12.0669 0.533214 12.0266 0.560099 11.9202C0.673238 11.471 0.784138 11.0217 0.89504 10.5726C0.932003 10.4247 0.970091 10.2757 1.00034 10.1267C1.0205 10.0248 1.06083 9.98227 1.1762 9.9856C1.57275 9.99459 1.96819 9.98785 2.36474 9.98785C2.44091 9.98785 2.4958 9.97661 2.51709 9.88478C2.68063 9.18581 2.84642 8.48789 3.01669 7.79112C3.35499 6.39647 3.69665 5.00295 4.03719 3.6083C4.04727 3.5691 4.05175 3.52765 4.06071 3.48061C4.03495 3.47164 4.01366 3.4582 3.9935 3.4582C3.65744 3.45596 3.32251 3.44924 2.98756 3.4582C2.93156 3.45932 2.85314 3.52317 2.82849 3.57806C2.69407 3.87828 2.57645 4.18521 2.44539 4.48654C2.42634 4.53135 2.36585 4.58848 2.32441 4.58848C1.5694 4.5952 0.814384 4.59408 0.0593711 4.59408C0.047049 4.59408 0.0336059 4.58512 0 4.57392C0.0392069 4.39132 0.0750531 4.20761 0.119861 4.02502C0.345021 3.1031 0.578023 2.18341 0.79534 1.25925C0.831186 1.10803 0.889437 1.0733 1.03506 1.0733C4.61073 1.07778 8.1864 1.07666 11.761 1.07666C11.8718 1.07666 11.9817 1.07666 12.1094 1.07666C12.097 1.14724 12.0903 1.201 12.0768 1.25253C11.8102 2.31224 11.5403 3.37082 11.2803 4.43165C11.2456 4.57168 11.1818 4.60305 11.0518 4.60192C10.4089 4.5952 9.76584 4.59408 9.12173 4.59408C8.80812 4.59408 8.80921 4.59744 8.83385 4.28827C8.85516 4.02054 8.87306 3.75281 8.89437 3.45932L8.89545 3.46156Z" fill="white"/>
<path d="M42.088 5.80487C42.0219 5.75783 41.9794 5.72647 41.9345 5.69734C41.8685 5.65365 41.7968 5.61892 41.7363 5.56851C41.3409 5.23582 41.342 4.91208 41.7296 4.5693C42.0018 4.32846 42.3322 4.19739 42.6671 4.08874C43.2497 3.89942 43.8356 3.70899 44.4315 3.56897C44.9826 3.43902 45.5461 3.34492 46.1084 3.28443C46.7369 3.21722 47.3709 3.18698 48.0038 3.1769C48.6972 3.16569 49.3928 3.21274 50.0761 3.33372C50.5511 3.41773 51.0305 3.50959 51.4417 3.79188C51.6153 3.91062 51.7811 4.03833 51.8629 4.24332C51.929 4.41023 51.9323 4.57266 51.8662 4.74293C51.7363 5.08011 51.4843 5.30751 51.193 5.50131C50.4425 5.99979 49.6314 6.38178 48.7924 6.70775C47.5759 7.18048 46.3302 7.56134 45.0554 7.8358C44.2646 8.00606 43.4603 8.11136 42.6605 8.23459C42.3435 8.28387 42.0219 8.30291 41.7027 8.3354C41.6657 8.33876 41.6254 8.3354 41.593 8.34996C41.5448 8.37125 41.4876 8.39701 41.4652 8.43734C41.454 8.4575 41.501 8.52807 41.5369 8.55496C41.9088 8.83277 42.2729 9.12516 42.6616 9.37941C43.6048 9.9978 44.6409 10.3977 45.7466 10.6273C45.8979 10.6586 46.0423 10.7528 46.1734 10.8424C46.2866 10.9186 46.2798 11.0362 46.2047 11.1493C46.1006 11.305 45.9482 11.3924 45.7735 11.435C45.3343 11.5425 44.8941 11.5123 44.4573 11.4249C43.0705 11.1482 41.8394 10.5388 40.7214 9.68636C40.6105 9.60236 40.4962 9.52169 40.3764 9.45109C40.0224 9.24163 39.7054 9.25845 39.4063 9.543C39.2069 9.7334 39.0377 9.95967 38.8765 10.1849C38.602 10.5646 38.3006 10.904 37.8313 11.0429C37.5378 11.1303 37.2376 11.0374 37.0516 10.8099C36.9251 10.6553 36.9251 10.4918 37.0639 10.3484C37.3452 10.0582 37.633 9.77486 37.9164 9.48581C38.0587 9.3402 38.1998 9.19127 38.3332 9.03664C38.4317 8.9235 38.4261 8.84957 38.3085 8.75323C38.2267 8.68602 38.1315 8.63338 38.0396 8.5796C37.7842 8.43062 37.7316 8.108 37.9298 7.89292C38.0889 7.72041 38.285 7.6252 38.5202 7.61623C38.7901 7.60727 39.0601 7.60951 39.3301 7.59832C39.6841 7.58375 39.9641 7.38772 40.2352 7.19504C40.6475 6.90155 41.0429 6.58453 41.4473 6.27984C41.6501 6.12637 41.8573 5.97851 42.0891 5.80712L42.088 5.80487ZM47.7865 4.07977C46.9911 4.1369 46.2395 4.18955 45.4879 4.24668C45.3074 4.26012 45.1271 4.28589 44.9479 4.31166C44.8549 4.32509 44.8034 4.3755 44.799 4.47968C44.7866 4.83254 44.5894 5.08459 44.3206 5.28734C44.1615 5.40721 43.9924 5.51474 43.8311 5.63237C43.3281 5.99979 42.8274 6.36833 42.3266 6.738C42.1552 6.86458 41.9827 6.99228 41.8192 7.12895C41.7822 7.16032 41.752 7.24545 41.7699 7.28242C41.7878 7.32162 41.8674 7.35523 41.9189 7.35299C42.1138 7.34403 42.3087 7.32499 42.5025 7.30034C43.5958 7.15808 44.6836 6.9878 45.7556 6.72679C46.9239 6.44227 48.0654 6.0782 49.1565 5.57299C49.4578 5.43297 49.7524 5.26606 50.0224 5.07115C50.3036 4.86727 50.2834 4.63427 49.9675 4.48305C49.7031 4.35646 49.413 4.259 49.124 4.21196C48.6715 4.13802 48.2088 4.11786 47.7898 4.07865L47.7865 4.07977ZM43.6944 4.52785C43.6832 4.50769 43.672 4.48752 43.6619 4.46736C43.4569 4.46512 43.2978 4.58947 43.1276 4.68132C43.1164 4.68804 43.1096 4.73396 43.1175 4.74069C43.141 4.75861 43.1757 4.77989 43.2004 4.77429C43.2721 4.75638 43.3438 4.73172 43.4087 4.69812C43.5073 4.64772 43.5992 4.5861 43.6944 4.53009V4.52785Z" fill="white"/>
<path d="M0.965649 16.2833C13.1176 16.2598 25.2694 16.2564 37.4213 16.2845C37.4213 16.2979 37.4213 16.3124 37.4213 16.3258C36.8926 16.3258 36.3628 16.3258 35.834 16.3258C31.659 16.336 27.484 16.3449 23.3091 16.3562C20.7875 16.3629 18.2671 16.3841 15.7455 16.383C12.9361 16.383 10.1255 16.3629 7.31604 16.3539C6.23505 16.3506 5.15518 16.3539 4.07419 16.3506C3.04921 16.3472 2.02424 16.3383 1.00037 16.3315C0.988052 16.3315 0.975731 16.3237 0.963409 16.3192C0.963409 16.3069 0.965649 16.2945 0.966764 16.2822L0.965649 16.2833Z" fill="#050505" stroke="white" stroke-width="0.2"/>
<path d="M92.9023 16.3303C92.0923 16.3303 91.2822 16.3291 90.4714 16.3303C86.8882 16.3381 83.3043 16.346 79.721 16.356C77.3675 16.3628 75.014 16.3863 72.6604 16.3841C68.9369 16.3807 65.2144 16.3628 61.4909 16.3493C60.6105 16.346 59.73 16.3347 58.8495 16.3269C58.8192 16.3269 58.7901 16.3213 58.761 16.3C70.1411 16.2597 81.5211 16.2552 92.8998 16.2844C92.8998 16.2989 92.8998 16.3146 92.9015 16.3291L92.9023 16.3303Z" fill="#050505" stroke="white" stroke-width="0.2"/>
<path d="M53.6698 15.7007C53.989 15.8665 54.138 16.1096 54.1178 16.4446C54.0977 16.7694 53.8949 17.0214 53.5645 17.1223C53.1265 17.2555 52.7142 17.2186 52.3715 16.8848C52.0623 16.5835 52.1149 15.9449 52.5608 15.7355C52.5731 15.7299 52.582 15.7186 52.6022 15.7018C52.5754 15.6705 52.5518 15.6391 52.5238 15.6122C52.2796 15.3804 52.2113 15.0992 52.3121 14.7856C52.4039 14.5021 52.6291 14.361 52.9125 14.3061C53.2822 14.2344 53.6104 14.2893 53.8747 14.594C54.0484 14.7922 54.1055 15.3098 53.8423 15.5227C53.7817 15.572 53.7336 15.6346 53.6709 15.7007H53.6698ZM53.1724 15.834C53.0637 15.8564 52.9506 15.8665 52.8475 15.9046C52.6481 15.9774 52.5372 16.1533 52.5406 16.3583C52.544 16.5566 52.6594 16.7056 52.8632 16.784C53.0704 16.8623 53.2721 16.8512 53.4749 16.7683C53.616 16.7112 53.7 16.6081 53.7347 16.4636C53.8187 16.1208 53.5712 15.8486 53.1713 15.8329L53.1724 15.834ZM53.1399 14.631C52.8184 14.6355 52.6325 14.8012 52.6392 15.0802C52.6459 15.3468 52.861 15.5227 53.1768 15.5182C53.4581 15.5148 53.6675 15.3131 53.6619 15.0533C53.6563 14.799 53.4446 14.6276 53.1399 14.631Z" fill="white"/>
<path d="M43.7594 17.2007C43.2139 17.1705 42.8565 17.0013 42.6146 16.6194C42.563 16.5375 42.5641 16.4861 42.6515 16.4424C42.6717 16.4323 42.6908 16.4177 42.7109 16.4054C42.8834 16.3012 42.8924 16.2979 42.9764 16.4793C43.1433 16.8422 43.8121 16.9375 44.1067 16.6911C44.334 16.5006 44.3106 16.1925 44.0473 16.0582C43.8669 15.9663 43.6687 15.908 43.4771 15.8352C43.3684 15.7938 43.2575 15.7591 43.1511 15.712C42.824 15.5675 42.6481 15.2953 42.6829 14.9973C42.7266 14.631 42.992 14.3532 43.3528 14.2961C43.8322 14.2187 44.2098 14.3857 44.4965 14.771C44.5458 14.8371 44.5492 14.8763 44.4685 14.9234C44.2501 15.0511 44.2523 15.0544 44.0944 14.8629C43.886 14.6097 43.5331 14.5493 43.252 14.7184C43.0021 14.8685 42.9943 15.2168 43.2497 15.358C43.4021 15.442 43.5757 15.4891 43.7392 15.5563C43.924 15.6324 44.1134 15.7008 44.2882 15.7938C44.7866 16.0603 44.6925 16.8053 44.278 17.0159C44.0876 17.1122 43.8737 17.1638 43.7605 17.203L43.7594 17.2007Z" fill="white"/>
<path d="M42.247 14.3431C42.247 14.3431 42.2515 14.3521 42.2515 14.3566C42.2404 14.5641 42.1301 14.6679 41.9211 14.6679C41.6365 14.6679 41.3532 14.6702 41.0686 14.6679C40.9779 14.6679 40.9454 14.6993 40.9476 14.7901C40.9532 14.994 40.9532 15.1978 40.9465 15.4017C40.9431 15.5137 40.9857 15.5451 41.0943 15.5428C41.4013 15.5361 41.7094 15.5451 42.0162 15.5361C42.1798 15.5317 42.144 15.6391 42.1519 15.7299C42.1608 15.833 42.135 15.9001 42.0107 15.8979C41.7037 15.8923 41.3957 15.898 41.0888 15.8901C40.9879 15.8878 40.9454 15.9125 40.9487 16.0212C40.9555 16.2295 40.9521 16.4379 40.9465 16.6462C40.9442 16.7459 40.9734 16.784 41.0832 16.7807C41.4327 16.7717 41.7821 16.7773 42.1316 16.7717C42.2336 16.7705 42.2807 16.8031 42.2673 16.9084C42.2616 16.9498 42.2773 16.9969 42.2605 17.0316C42.2414 17.0708 42.1989 17.1268 42.1653 17.1279C41.6668 17.1347 41.1683 17.1335 40.6698 17.1358C40.5813 17.1358 40.5656 17.0943 40.5668 17.0136C40.5668 16.1522 40.5656 15.2908 40.5612 14.4293C40.5612 14.3632 40.569 14.3195 40.6463 14.3207C41.1727 14.324 41.6981 14.3263 42.2246 14.3297C42.2325 14.3297 42.2404 14.3398 42.247 14.3442V14.3431Z" fill="white"/>
<path d="M50.3999 17.1346C50.6352 16.7941 50.8469 16.4894 51.0697 16.1669C50.9275 16.1523 50.8166 16.1511 50.7102 16.1287C50.3226 16.0503 50.0179 15.7367 49.9765 15.3838C49.9227 14.9267 50.0985 14.5436 50.4615 14.3767C50.9409 14.1561 51.7284 14.2368 51.8943 15.0119C51.9614 15.3244 51.8696 15.6045 51.6904 15.8644C51.4237 16.2497 51.1684 16.6418 50.8995 17.026C50.8614 17.0798 50.7785 17.1167 50.7102 17.1302C50.6228 17.1481 50.5287 17.1346 50.3999 17.1346ZM50.9376 15.7971C51.2232 15.8375 51.5649 15.5698 51.5503 15.1922C51.538 14.8561 51.2927 14.631 50.9096 14.6299C50.5859 14.6288 50.3237 14.892 50.3282 15.2146C50.3315 15.5351 50.6015 15.8375 50.9376 15.7971Z" fill="white"/>
<path d="M72.2516 2.51393C72.6459 2.49713 72.8532 2.74468 72.7288 3.11883C72.5518 3.65428 72.1664 3.96794 71.6086 4.0598C71.473 4.0822 71.3297 4.07884 71.193 4.06315C70.9466 4.03627 70.8121 3.82456 70.857 3.58036C70.8973 3.36079 71.0104 3.18492 71.1594 3.02698C71.4562 2.71444 71.8147 2.53073 72.2527 2.51393H72.2516Z" fill="white"/>
<path d="M54.9131 16.7661C54.9568 16.7739 54.9949 16.7862 55.0319 16.7862C55.3578 16.784 55.6838 16.7806 56.0098 16.775C56.1285 16.7728 56.1745 16.8187 56.1678 16.9408C56.161 17.055 56.1711 17.1413 56.0042 17.1379C55.4822 17.1301 54.9602 17.1402 54.4393 17.1391C54.3989 17.1391 54.3272 17.11 54.3262 17.0909C54.3205 17.0013 54.3239 16.9094 54.3452 16.8221C54.3553 16.7784 54.4079 16.7437 54.4426 16.7067C54.7742 16.3684 55.1103 16.0345 55.4362 15.6906C55.5337 15.5876 55.6121 15.4633 55.6782 15.3378C55.7791 15.144 55.7443 14.9435 55.6076 14.7968C55.4586 14.6377 55.2268 14.5682 55.0352 14.6567C54.9221 14.7083 54.8145 14.7923 54.7305 14.8841C54.651 14.9715 54.6028 15.0062 54.4931 14.9245C54.3048 14.7844 54.3004 14.7923 54.4549 14.6108C54.7933 14.2108 55.537 14.1369 55.8933 14.5637C56.1218 14.836 56.1868 15.2728 55.9694 15.5719C55.7577 15.8632 55.499 16.1197 55.2592 16.3897C55.1518 16.5107 55.0408 16.6271 54.9142 16.7649L54.9131 16.7661Z" fill="white"/>
<path d="M44.7081 14.3095C44.9344 14.3095 45.1428 14.3095 45.3522 14.3095C45.7813 14.3118 46.2092 14.3185 46.6383 14.3185C46.7357 14.3185 46.7816 14.3476 46.7637 14.4451C46.7469 14.5314 46.8219 14.6669 46.6416 14.6669C46.4411 14.6669 46.2406 14.677 46.0412 14.6725C45.9325 14.6702 45.9135 14.7084 45.9146 14.8114C45.9236 15.5529 45.9269 16.2945 45.9247 17.0361C45.9247 17.0697 45.8665 17.128 45.8295 17.1325C45.5539 17.1672 45.5517 17.1616 45.5517 16.8972C45.5528 16.1971 45.5517 15.4969 45.5561 14.7979C45.5561 14.6994 45.5315 14.6714 45.4284 14.6758C45.2189 14.6848 45.0095 14.6781 44.8 14.6692C44.7686 14.668 44.7171 14.6232 44.7126 14.593C44.7003 14.5078 44.7081 14.4205 44.7081 14.3107V14.3095Z" fill="white"/>
<path d="M49.1375 14.7262C48.9829 14.7722 48.8305 14.808 48.6849 14.864C48.5594 14.9122 48.5269 14.8461 48.5 14.7519C48.4754 14.6634 48.4273 14.5772 48.5729 14.5358C48.76 14.4831 48.9392 14.4002 49.1273 14.3509C49.2495 14.3184 49.3817 14.3218 49.5306 14.3073C49.5306 14.5234 49.5306 14.7161 49.5306 14.9077C49.5306 15.6067 49.5284 16.3068 49.534 17.0058C49.534 17.1133 49.5016 17.1503 49.4007 17.1368C49.3917 17.1357 49.3817 17.1368 49.3727 17.1368C49.1353 17.138 49.1397 17.1357 49.1419 16.8961C49.1509 16.197 49.1531 15.4969 49.1576 14.7979C49.1576 14.7811 49.1476 14.7642 49.1363 14.7262H49.1375Z" fill="white"/>
<path d="M46.9217 17.1715C46.7649 17.1715 46.6517 17.0718 46.6507 16.934C46.6495 16.794 46.7772 16.6562 46.9094 16.6562C47.0595 16.6562 47.1861 16.7727 47.185 16.9116C47.185 17.0707 47.0808 17.1715 46.9217 17.1715Z" fill="white"/>
</svg>
